<?xml version="1.0" encoding="UTF-8"?>
<svg version="1.1" xmlns="http://www.w3.org/2000/svg" width="512" height="512">
<path d="M0 0 C0.99868909 -0.00297112 1.99737819 -0.00594224 3.02633059 -0.0090034 C6.35908455 -0.01764635 9.69180239 -0.01919493 13.02456665 -0.02069092 C15.42015662 -0.02532233 17.81574585 -0.03034742 20.21133423 -0.03573608 C26.71186048 -0.04883371 33.21237985 -0.05533771 39.71291685 -0.05974674 C43.78023756 -0.06251761 47.84755591 -0.06675656 51.91487503 -0.07125092 C63.19913521 -0.08343966 74.48339352 -0.09373856 85.76766014 -0.09712601 C86.48888342 -0.09734557 87.2101067 -0.09756514 87.95318524 -0.09779136 C88.67603937 -0.09800964 89.39889351 -0.09822791 90.14365232 -0.09845281 C91.60818887 -0.09889626 93.07272542 -0.09934282 94.53726196 -0.09979248 C95.2637076 -0.10001391 95.99015323 -0.10023534 96.73861237 -0.10046348 C108.48858398 -0.10440477 120.23849332 -0.12184006 131.98844092 -0.145152 C144.08217627 -0.16895013 156.17588049 -0.18133175 168.26963961 -0.18249393 C175.04751456 -0.18340615 181.82530843 -0.18904286 188.60316086 -0.20731354 C194.98736375 -0.22388814 201.37141365 -0.2259044 207.75563049 -0.21717453 C210.08628883 -0.21640908 212.41695571 -0.22068117 214.74759293 -0.23063278 C258.07962913 -0.40465983 296.27158717 14.14096113 327.37026978 44.66778564 C335.82133285 53.25263113 342.72223089 62.77794547 348.81997681 73.14044189 C349.16657349 73.72519287 349.51317017 74.30994385 349.87026978 74.91241455 C362.01010239 95.68527045 368.98307225 119.22610484 368.9604187 143.32046509 C368.96487538 144.81849873 368.96487538 144.81849873 368.9694221 146.34679568 C368.97806505 149.67954963 368.97961363 153.01226748 368.98110962 156.34503174 C368.98574103 158.7406217 368.99076612 161.13621093 368.99615479 163.53179932 C369.00925242 170.03232557 369.01575642 176.53284494 369.02016544 183.03338194 C369.02293631 187.10070264 369.02717527 191.168021 369.03166962 195.23534012 C369.04385836 206.5196003 369.05415726 217.80385861 369.05754471 229.08812523 C369.05776427 229.80934851 369.05798384 230.53057179 369.05821006 231.27365033 C369.05842834 231.99650446 369.05864662 232.7193586 369.05887151 233.46411741 C369.05931496 234.92865396 369.05976152 236.3931905 369.06021118 237.85772705 C369.06043261 238.58417268 369.06065404 239.31061832 369.06088218 240.05907746 C369.06482347 251.80904907 369.08225876 263.55895841 369.1055707 275.308906 C369.12936883 287.40264135 369.14175045 299.49634558 369.14291263 311.5901047 C369.14382485 318.36797965 369.14946156 325.14577352 369.16773224 331.92362595 C369.18430684 338.30782883 369.1863231 344.69187874 369.17759323 351.07609558 C369.17682778 353.40675392 369.18109987 355.7374208 369.19105148 358.06805801 C369.36507853 401.40009422 354.81945758 439.59205226 324.29263306 470.69073486 C315.70778757 479.14179794 306.18247323 486.04269597 295.81997681 492.14044189 C295.23522583 492.48703857 294.65047485 492.83363525 294.04800415 493.19073486 C273.27514825 505.33056748 249.73431386 512.30353734 225.63995361 512.28088379 C224.64126452 512.28385491 223.64257542 512.28682603 222.61362302 512.28988719 C219.28086907 512.29853014 215.94815122 512.30007872 212.61538696 512.30157471 C210.219797 512.30620611 207.82420777 512.31123121 205.42861938 512.31661987 C198.92809313 512.3297175 192.42757376 512.3362215 185.92703676 512.34063053 C181.85971606 512.3434014 177.7923977 512.34764035 173.72507858 512.3521347 C162.4408184 512.36432345 151.15656009 512.37462235 139.87229347 512.3780098 C138.79045855 512.37833915 138.79045855 512.37833915 137.68676838 512.37867515 C136.96391424 512.37889343 136.2410601 512.3791117 135.49630129 512.3793366 C134.03176474 512.37978005 132.5672282 512.38022661 131.10269165 512.38067627 C130.37624602 512.3808977 129.64980038 512.38111913 128.90134124 512.38134727 C117.15136963 512.38528855 105.40146029 512.40272385 93.6515127 512.42603579 C81.55777735 512.44983392 69.46407312 512.46221554 57.370314 512.46337771 C50.59243905 512.46428994 43.81464518 512.46992664 37.03679276 512.48819733 C30.65258987 512.50477193 24.26853996 512.50678819 17.88432312 512.49805832 C15.55366478 512.49729287 13.2229979 512.50156496 10.89236069 512.51151657 C-32.43967552 512.68554362 -70.63163355 498.13992266 -101.73031616 467.61309814 C-110.18137924 459.02825266 -117.08227727 449.50293832 -123.18002319 439.14044189 C-123.52661987 438.55569092 -123.87321655 437.97093994 -124.23031616 437.36846924 C-139.15366328 411.83265263 -143.96888288 384.22270078 -143.82699585 354.93341064 C-143.83379502 352.5269607 -143.84271086 350.12051597 -143.85354614 347.71408081 C-143.87607264 341.2594098 -143.86761464 334.80514453 -143.85165071 328.35046768 C-143.84267249 324.30057544 -143.84447118 320.25073325 -143.84910202 316.20083618 C-143.84986819 315.52315191 -143.85063435 314.84546765 -143.85142373 314.14724749 C-143.85302277 312.7694531 -143.85464384 311.39165874 -143.85628669 310.0138644 C-143.87045789 297.17115175 -143.8542884 284.32861914 -143.82728486 271.48593605 C-143.80495393 260.5272569 -143.80883651 249.56884283 -143.83187866 238.61016846 C-143.85879081 225.80542442 -143.86908541 213.00083715 -143.85381734 200.19606876 C-143.85222502 198.82406174 -143.85065316 197.45205468 -143.84910202 196.08004761 C-143.84833064 195.40544076 -143.84755927 194.73083391 -143.84676451 194.03578442 C-143.84249339 189.33985864 -143.8498857 184.64406472 -143.86149979 179.94815063 C-143.87611257 173.59803788 -143.86562045 167.2484178 -143.8370285 160.89835739 C-143.83050645 158.58998806 -143.83215941 156.2815761 -143.84334183 153.97322464 C-144.02984188 111.50758545 -129.37532516 73.193066 -99.75082397 42.66778564 C-73.70742027 16.77431011 -36.88675524 -0.03468097 0 0 Z " fill="#7211C8" transform="translate(143.18002319335938,-0.14044189453125)"/>
<path d="M0 0 C16.74179363 -1.13248836 16.74179363 -1.13248836 21.77772522 2.71994019 C23.07447802 3.96257211 24.32798664 5.25158778 25.53930664 6.57763672 C26.24404617 7.27668121 26.94878571 7.97572571 27.67488098 8.69595337 C29.9628971 10.98559864 32.18479241 13.32924529 34.41015625 15.6796875 C35.99650762 17.29271169 37.58653533 18.90212778 39.18003845 20.50808716 C43.34047303 24.72178722 47.44651069 28.9848515 51.54376221 33.2598877 C55.74036475 37.61706492 59.99190495 41.91996251 64.23632812 46.23046875 C70.40359509 52.51642123 76.55946005 58.81316354 82.66040039 65.16357422 C83.63021851 66.16266815 83.63021851 66.16266815 84.61962891 67.1819458 C89 71.76818102 89 71.76818102 89 74 C90.485 74.495 90.485 74.495 92 75 C93.36639342 76.6396721 94.6949419 78.31110128 96 80 C97.65210472 81.68110248 99.32208934 83.3446537 101 85 C102.14601271 86.14630099 103.2909679 87.2936598 104.43510437 88.4418335 C105.07014893 89.07832321 105.70519348 89.71481293 106.35948181 90.37059021 C107.03966873 91.05234818 107.71985565 91.73410614 108.4206543 92.43652344 C115.82606405 99.85824963 123.23400367 107.27744541 130.6433897 114.69520187 C135.12368775 119.18073954 139.6030382 123.66721545 144.08032227 128.15576172 C148.41513502 132.50140606 152.75235628 136.84463285 157.09128761 141.18616486 C158.74563279 142.84236165 160.39909573 144.49944018 162.05167198 146.15740204 C164.35465487 148.46760027 166.66070368 150.77469449 168.9675293 153.08105469 C169.65378891 153.77090958 170.34004852 154.46076447 171.04710388 155.17152405 C171.67368896 155.79673447 172.30027405 156.42194489 172.94584656 157.06610107 C173.49058467 157.61176098 174.03532278 158.15742088 174.59656811 158.71961594 C175.99211974 160.10957914 175.99211974 160.10957914 178 161 C178 108.53 178 56.06 178 2 C198.79 2 219.58 2 241 2 C241 100.34 241 198.68 241 300 C223.7643759 300 223.7643759 300 215.61634827 291.91812134 C214.68064906 291.04745037 213.74494985 290.17677941 212.78089613 289.27972448 C210.20460518 286.87936003 207.675375 284.43413496 205.1523 281.97805381 C202.41479675 279.32849714 199.63653335 276.72220211 196.8646698 274.10870361 C190.18152291 267.78754274 183.57098867 261.39298056 176.97227898 254.98388153 C175.09990164 253.16624224 173.22564476 251.35056379 171.35071635 249.53555632 C159.65031805 238.20859723 147.97385212 226.85756312 136.36780643 215.43387794 C133.6824204 212.79140274 130.99679936 210.14916687 128.31079102 207.50732422 C127.6433946 206.85085625 126.97599818 206.19438829 126.28837764 205.51802735 C115.54415695 194.95808367 104.65708767 184.55966385 93.69994516 174.2212847 C82.38882682 163.54368273 71.22810906 152.72508289 60.19139284 141.76399648 C54.01347246 135.63541239 47.79141444 129.58007642 41.39579964 123.67830276 C18.68394347 102.66321645 -1.48911224 83.82674829 -3.13230977 51.41349398 C-3.75723946 34.22730918 -2.30705524 17.01977116 0 0 Z " fill="#FEFDFE" transform="translate(135,106)"/>
<path d="M0 0 C2.31 1.98 4.62 3.96 7 6 C8.96044785 7.43649587 10.93887505 8.84880676 12.93530273 10.23486328 C20.77129749 15.80041131 28.19642788 21.80721214 35.4375 28.125 C36.09289764 28.69618561 36.74829529 29.26737122 37.42355347 29.85586548 C55.08013334 45.50010555 64.96724056 60.60152698 66.52839851 84.530056 C67.75781664 110.40605437 65.5445962 136.27130507 63 162 C42.21 162 21.42 162 0 162 C0 108.54 0 55.08 0 0 Z " fill="#FEFDFE" transform="translate(136,243)"/>
</svg>
